{"title":"Paper_Moon[1973]DVDRIP[Eng+multisubs]","uid":9593591,"size":1476970243,"categoryP":"video","categoryS":"movies","magnet":"?xt=urn:btih:d53b5dab118712de026c047af83fc67bc07b3bd9&amp;dn=Paper_Moon%5B1973%5DDVDRIP%5BEng%2Bmultisubs%5D&amp;tr=udp%3A%2F%2Ftracker.openbittorrent.com%3A80&amp;tr=udp%3A%2F%2Fopen.demonii.com%3A1337&amp;tr=udp%3A%2F%2Ftracker.coppersurfer.tk%3A6969&amp;tr=udp%3A%2F%2Fexodus.desync.com%3A6969","seeders":1,"leechers":0,"uploader":"Fanchig","files":-1,"time":1391964323,"description":"During the Great Depression, a con man finds himself saddled with a young girl who may or may not be his daughter, and the two forge an unlikely partnership.\n\nSubtitles: (VOBSUB)\n**********\nEnglish, English (Hearing Impaired), French, Slovenian, German, Swedish, Danish, Norwegian, Finnish, Dutch, Bulgarian, Icelandic, Portuguese, Hebrew, Greek, Croatian, Arabic, Turkish, Polish, Italian, Spanish, Romanian, Czech, Hungarian, Serbian.\n\nGeneral\nFormat                                   : Matroska\nFormat version                           : Version 4 / Version 2\nFile size                                : 1.38 GiB\nDuration                                 : 1h 38mn\nOverall bit rate                         : 2 007 Kbps\nEncoded date                             : UTC 2014-02-07 18:37:21\nWriting application                      : mkvmerge v6.7.0 ('Back to the Ground') 64bit built on Jan  8 2014 15:10:52\nWriting library                          : libebml v1.3.0 + libmatroska v1.4.1\n\nVideo\nID                                       : 1\nFormat                                   : AVC\nFormat/Info                              : Advanced Video Codec\nFormat profile                           : &lt;a class=&quot;__cf_email__&quot; href=&quot;/cdn-cgi/l/email-protection&quot; data-cfemail=&quot;fdb5949a95bdb1ced3cd&quot;&gt;[email&amp;#160;protected]&lt;/a&gt;&lt;script cf-hash='f9e31' type=&quot;text/javascript&quot;&gt;\n/* &lt;![CDATA[ */!function(){try{var t=&quot;currentScript&quot;in document?document.currentScript:function(){for(var t=document.getElementsByTagName(&quot;script&quot;),e=t.length;e--;)if(t[e].getAttribute(&quot;cf-hash&quot;))return t[e]}();if(t&amp;&amp;t.previousSibling){var e,r,n,i,c=t.previousSibling,a=c.getAttribute(&quot;data-cfemail&quot;);if(a){for(e=&quot;&quot;,r=parseInt(a.substr(0,2),16),n=2;a.length-n;n+=2)i=parseInt(a.substr(n,2),16)^r,e+=String.fromCharCode(i);e=document.createTextNode(e),c.parentNode.replaceChild(e,c)}}}catch(u){}}();/* ]]&gt; */&lt;/script&gt;\nFormat settings, CABAC                   : Yes\nFormat settings, ReFrames                : 4 frames\nCodec ID                                 : V_MPEG4/ISO/AVC\nDuration                                 : 1h 38mn\nBit rate                                 : 1 750 Kbps\nWidth                                    : 720 pixels\nHeight                                   : 576 pixels\nDisplay aspect ratio                     : 16:9\nFrame rate mode                          : Constant\nFrame rate                               : 25.000 fps\nStandard                                 : PAL\nColor space                              : YUV\nChroma subsampling                       : 4:2:0\nBit depth                                : 8 bits\nScan type                                : Progressive\nBits/(Pixel*Frame)                       : 0.169\nStream size                              : 1.22 GiB (88%)\nWriting library                          : x264 core 120 r2120 0c7dab9\nEncoding settings                        : cabac=1 / ref=3 / deblock=1:0:0 / analyse=0x3:0x113 / me=hex / subme=7 / psy=1 / psy_rd=1.00:0.00 / mixed_ref=1 / me_range=16 / chroma_me=1 / trellis=1 / 8x8dct=1 / cqm=0 / deadzone=21,11 / fast_pskip=1 / chroma_qp_offset=-2 / threads=3 / sliced_threads=0 / nr=0 / decimate=1 / interlaced=0 / bluray_compat=0 / constrained_intra=0 / bframes=3 / b_pyramid=2 / b_adapt=1 / b_bias=0 / direct=1 / weightb=1 / open_gop=0 / weightp=2 / keyint=250 / keyint_min=25 / scenecut=40 / intra_refresh=0 / rc_lookahead=40 / rc=2pass / mbtree=1 / bitrate=1750 / ratetol=1.0 / qcomp=0.60 / qpmin=0 / qpmax=51 / qpstep=4 / cplxblur=20.0 / qblur=0.5 / ip_ratio=1.40 / aq=1:1.00\nDefault                                  : Yes\nForced                                   : No\nMatrix coefficients                      : SMPTE 240M\n\nAudio\nID                                       : 2\nFormat                                   : AC-3\nFormat/Info                              : Audio Coding 3\nMode extension                           : CM (complete main)\nFormat settings, Endianness              : Big\nCodec ID                                 : A_AC3\nDuration                                 : 1h 38mn\nBit rate mode                            : Constant\nBit rate                                 : 192 Kbps\nChannel(s)                               : 2 channels\nChannel positions                        : Front: L R\nSampling rate                            : 48.0 KHz\nBit depth                                : 16 bits\nCompression mode                         : Lossy\nStream size                              : 135 MiB (10%)\nLanguage                                 : English\nDefault                                  : Yes\nForced                                   : No\n\n25 VOBSUB files (see list above)\n\nMenu\n00:00:00.000                             : en:Chapter 1\n00:04:50.040                             : en:Chapter 2\n00:17:32.160                             : en:Chapter 3\n00:28:13.240                             : en:Chapter 4\n00:35:14.040                             : en:Chapter 5\n00:42:40.000                             : en:Chapter 6\n00:48:55.440                             : en:Chapter 7\n01:00:17.760                             : en:Chapter 8\n01:09:10.080                             : en:Chapter 9\n01:19:33.320                             : en:Chapter 10\n01:25:12.880                             : en:Chapter 11\n01:30:11.920                             : en:Chapter 12\n01:36:09.360                             : en:Chapter 13\n\nThanks to Year2012 for the original image rip.","torrent":{"xt":"urn:btih:d53b5dab118712de026c047af83fc67bc07b3bd9","amp;dn":"Paper_Moon%5B1973%5DDVDRIP%5BEng%2Bmultisubs%5D","amp;tr":["udp%3A%2F%2Ftracker.openbittorrent.com%3A80","udp%3A%2F%2Fopen.demonii.com%3A1337","udp%3A%2F%2Ftracker.coppersurfer.tk%3A6969","udp%3A%2F%2Fexodus.desync.com%3A6969"],"infoHash":"d53b5dab118712de026c047af83fc67bc07b3bd9","infoHashBuffer":{"type":"Buffer","data":[213,59,93,171,17,135,18,222,2,108,4,122,248,63,198,123,192,123,59,217]},"announce":[],"urlList":[]}}